<svg width="278" height="234" viewBox="0 0 278 234" fill="none" xmlns="http://www.w3.org/2000/svg">
<path d="M27.1652 25.5867L12.2657 71H0.263374L20.6185 16.2181H28.2563L27.1652 25.5867ZM39.5438 71L24.6067 25.5867L23.4027 16.2181H31.1158L51.5838 71H39.5438ZM38.8665 50.6073V59.4491H9.93298V50.6073H38.8665ZM69.7942 71H58.883V26.6778C58.883 23.5926 59.485 20.9965 60.689 18.8895C61.9181 16.7574 63.6363 15.1521 65.8436 14.0735C68.076 12.9698 70.7223 12.418 73.7825 12.418C74.7858 12.418 75.7515 12.4932 76.6796 12.6437C77.6077 12.7692 78.5107 12.9322 79.3886 13.1329L79.2757 21.2975C78.7991 21.1721 78.2975 21.0843 77.7707 21.0341C77.244 20.9839 76.6294 20.9589 75.9271 20.9589C74.6228 20.9589 73.5066 21.1846 72.5785 21.6361C71.6755 22.0625 70.9857 22.7021 70.5091 23.555C70.0325 24.4078 69.7942 25.4488 69.7942 26.6778V71ZM77.9212 30.2898V37.9653H52.8254V30.2898H77.9212ZM94.4385 39.1693V71H83.6026V30.2898H93.7989L94.4385 39.1693ZM106.704 30.0265L106.516 40.0723C105.989 39.9971 105.35 39.9344 104.597 39.8842C103.87 39.8089 103.205 39.7713 102.603 39.7713C101.073 39.7713 99.7437 39.972 98.6149 40.3733C97.5113 40.7496 96.5832 41.3139 95.8307 42.0664C95.1033 42.8189 94.5514 43.7345 94.1752 44.8131C93.824 45.8916 93.6233 47.1207 93.5732 48.5003L91.3909 47.823C91.3909 45.1893 91.6543 42.7688 92.1811 40.5614C92.7078 38.329 93.4728 36.3851 94.4762 34.7296C95.5046 33.0741 96.7588 31.7948 98.2387 30.8918C99.7186 29.9888 101.412 29.5373 103.318 29.5373C103.92 29.5373 104.535 29.5875 105.162 29.6878C105.789 29.7631 106.303 29.876 106.704 30.0265ZM123.259 30.2898V71H112.386V30.2898H123.259ZM111.708 19.6796C111.708 18.0994 112.26 16.795 113.364 15.7666C114.468 14.7382 115.947 14.224 117.804 14.224C119.635 14.224 121.102 14.7382 122.206 15.7666C123.334 16.795 123.899 18.0994 123.899 19.6796C123.899 21.2599 123.334 22.5642 122.206 23.5926C121.102 24.621 119.635 25.1352 117.804 25.1352C115.947 25.1352 114.468 24.621 113.364 23.5926C112.26 22.5642 111.708 21.2599 111.708 19.6796ZM149.032 63.2869C150.362 63.2869 151.541 63.0361 152.569 62.5344C153.597 62.0076 154.4 61.2802 154.977 60.3521C155.579 59.399 155.893 58.2828 155.918 57.0035H166.114C166.089 59.863 165.324 62.409 163.819 64.6414C162.314 66.8487 160.295 68.592 157.761 69.8713C155.228 71.1254 152.393 71.7525 149.258 71.7525C146.098 71.7525 143.338 71.2257 140.981 70.1723C138.648 69.1188 136.704 67.6639 135.149 65.8078C133.594 63.9265 132.427 61.7443 131.65 59.261C130.872 56.7527 130.483 54.0688 130.483 51.2093V50.1182C130.483 47.2336 130.872 44.5497 131.65 42.0664C132.427 39.5581 133.594 37.3759 135.149 35.5197C136.704 33.6385 138.648 32.1711 140.981 31.1176C143.313 30.0641 146.047 29.5373 149.183 29.5373C152.519 29.5373 155.441 30.177 157.949 31.4562C160.483 32.7355 162.464 34.5665 163.894 36.9494C165.349 39.3073 166.089 42.1041 166.114 45.3398H155.918C155.893 43.9853 155.604 42.7562 155.052 41.6526C154.526 40.5489 153.748 39.671 152.72 39.0188C151.716 38.3416 150.475 38.0029 148.995 38.0029C147.414 38.0029 146.123 38.3416 145.119 39.0188C144.116 39.671 143.338 40.574 142.787 41.7278C142.235 42.8566 141.846 44.1483 141.62 45.6032C141.42 47.0329 141.319 48.5379 141.319 50.1182V51.2093C141.319 52.7895 141.42 54.3071 141.62 55.7619C141.821 57.2167 142.197 58.5085 142.749 59.6373C143.326 60.766 144.116 61.6565 145.119 62.3086C146.123 62.9608 147.427 63.2869 149.032 63.2869ZM194.37 61.8195V43.6843C194.37 42.38 194.157 41.2638 193.731 40.3357C193.304 39.3825 192.64 38.6426 191.737 38.1158C190.859 37.5891 189.717 37.3257 188.313 37.3257C187.109 37.3257 186.068 37.5389 185.19 37.9653C184.312 38.3667 183.635 38.9561 183.158 39.7337C182.682 40.4862 182.443 41.3766 182.443 42.4051H171.607C171.607 40.6743 172.009 39.0314 172.811 37.4762C173.614 35.921 174.78 34.554 176.31 33.3751C177.84 32.1711 179.659 31.2305 181.766 30.5532C183.898 29.876 186.281 29.5373 188.915 29.5373C192.075 29.5373 194.885 30.0641 197.343 31.1176C199.801 32.1711 201.732 33.7513 203.137 35.8583C204.567 37.9653 205.282 40.5991 205.282 43.7596V61.1799C205.282 63.4123 205.42 65.2434 205.695 66.6731C205.971 68.0778 206.373 69.3069 206.899 70.3604V71H195.951C195.424 69.8963 195.023 68.5168 194.747 66.8613C194.496 65.1807 194.37 63.5001 194.37 61.8195ZM195.8 46.2052L195.875 52.338H189.818C188.388 52.338 187.146 52.5011 186.093 52.8272C185.039 53.1532 184.174 53.6173 183.497 54.2193C182.819 54.7962 182.318 55.4734 181.992 56.251C181.691 57.0286 181.54 57.8814 181.54 58.8095C181.54 59.7376 181.753 60.5779 182.18 61.3304C182.606 62.0578 183.221 62.6347 184.023 63.0611C184.826 63.4625 185.767 63.6631 186.845 63.6631C188.476 63.6631 189.893 63.3371 191.097 62.6849C192.301 62.0327 193.229 61.2301 193.881 60.2769C194.558 59.3237 194.91 58.4207 194.935 57.5679L197.794 62.1581C197.393 63.1866 196.841 64.2526 196.139 65.3563C195.461 66.4599 194.596 67.5009 193.543 68.4791C192.489 69.4323 191.222 70.2224 189.742 70.8495C188.263 71.4515 186.507 71.7525 184.475 71.7525C181.891 71.7525 179.546 71.2383 177.439 70.2099C175.357 69.1564 173.702 67.7141 172.473 65.883C171.269 64.0268 170.667 61.9199 170.667 59.562C170.667 57.4299 171.068 55.5362 171.871 53.8807C172.673 52.2252 173.852 50.833 175.407 49.7043C176.988 48.5505 178.957 47.6851 181.314 47.1082C183.672 46.5062 186.406 46.2052 189.517 46.2052H195.8ZM26.3374 136.958H12.2657L12.1905 129.207H24.0047C26.0866 129.207 27.7923 128.944 29.1217 128.417C30.4511 127.865 31.4419 127.075 32.0941 126.046C32.7713 124.993 33.1099 123.714 33.1099 122.209C33.1099 120.503 32.7838 119.123 32.1317 118.07C31.5046 117.016 30.5138 116.251 29.1593 115.775C27.8299 115.298 26.1117 115.06 24.0047 115.06H16.1787V161H4.89124V106.218H24.0047C27.1903 106.218 30.0372 106.519 32.5456 107.121C35.079 107.723 37.2236 108.639 38.9794 109.868C40.7352 111.097 42.0772 112.652 43.0053 114.533C43.9334 116.389 44.3974 118.597 44.3974 121.155C44.3974 123.413 43.8832 125.495 42.8548 127.401C41.8515 129.307 40.2587 130.862 38.0764 132.066C35.9193 133.27 33.0974 133.935 29.6108 134.061L26.3374 136.958ZM25.8483 161H9.18048L13.5826 152.196H25.8483C27.8299 152.196 29.4478 151.882 30.7019 151.255C31.9561 150.603 32.8842 149.725 33.4862 148.621C34.0882 147.518 34.3892 146.251 34.3892 144.821C34.3892 143.216 34.1133 141.824 33.5614 140.645C33.0347 139.466 32.1818 138.563 31.0029 137.936C29.824 137.284 28.2689 136.958 26.3374 136.958H15.4638L15.5391 129.207H29.0841L31.6802 132.255C35.0163 132.204 37.7002 132.794 39.7319 134.023C41.7887 135.227 43.2812 136.795 44.2093 138.726C45.1624 140.657 45.639 142.727 45.639 144.934C45.639 148.446 44.874 151.406 43.3439 153.814C41.8138 156.197 39.5689 157.99 36.609 159.194C33.6743 160.398 30.0874 161 25.8483 161ZM72.1646 161.752C69.0041 161.752 66.1697 161.251 63.6614 160.248C61.153 159.219 59.021 157.802 57.2651 155.996C55.5344 154.19 54.205 152.095 53.2769 149.713C52.3488 147.305 51.8848 144.746 51.8848 142.037V140.532C51.8848 137.447 52.3237 134.625 53.2016 132.066C54.0796 129.508 55.3337 127.288 56.9641 125.407C58.6196 123.526 60.6263 122.083 62.9841 121.08C65.3419 120.052 68.0008 119.537 70.9606 119.537C73.8452 119.537 76.4037 120.014 78.6361 120.967C80.8685 121.92 82.7372 123.275 84.2422 125.031C85.7723 126.786 86.9261 128.893 87.7037 131.352C88.4813 133.785 88.8701 136.494 88.8701 139.479V143.994H56.5126V136.77H78.2222V135.942C78.2222 134.437 77.9463 133.095 77.3945 131.916C76.8677 130.712 76.0651 129.759 74.9865 129.056C73.9079 128.354 72.5283 128.003 70.8477 128.003C69.418 128.003 68.1889 128.316 67.1605 128.944C66.1321 129.571 65.2918 130.449 64.6396 131.577C64.0125 132.706 63.536 134.035 63.2099 135.566C62.9089 137.071 62.7584 138.726 62.7584 140.532V142.037C62.7584 143.667 62.9841 145.172 63.4356 146.552C63.9122 147.932 64.5769 149.123 65.4297 150.126C66.3077 151.13 67.3612 151.907 68.5902 152.459C69.8444 153.011 71.2616 153.287 72.8418 153.287C74.7983 153.287 76.6169 152.911 78.2975 152.158C80.0031 151.381 81.4705 150.214 82.6996 148.659L87.9671 154.378C87.1142 155.607 85.9479 156.786 84.4679 157.915C83.0131 159.044 81.2573 159.972 79.2005 160.699C77.1436 161.401 74.7983 161.752 72.1646 161.752ZM64.5267 114.759L71.9012 103.17H83.6778L73.331 114.759H64.5267ZM120.814 120.29H130.634V159.646C130.634 163.358 129.806 166.506 128.15 169.089C126.52 171.698 124.237 173.667 121.303 174.996C118.368 176.351 114.957 177.028 111.069 177.028C109.363 177.028 107.557 176.802 105.651 176.351C103.77 175.899 101.964 175.197 100.233 174.244C98.5271 173.291 97.0974 172.087 95.9436 170.632L100.722 164.236C101.976 165.691 103.431 166.819 105.086 167.622C106.742 168.45 108.573 168.864 110.58 168.864C112.536 168.864 114.192 168.5 115.546 167.772C116.901 167.07 117.942 166.029 118.669 164.65C119.396 163.295 119.76 161.652 119.76 159.721V129.696L120.814 120.29ZM93.4227 141.134V140.344C93.4227 137.234 93.7989 134.412 94.5514 131.878C95.329 129.32 96.4201 127.125 97.8248 125.294C99.2545 123.463 100.985 122.046 103.017 121.042C105.049 120.039 107.344 119.537 109.902 119.537C112.611 119.537 114.881 120.039 116.713 121.042C118.544 122.046 120.049 123.475 121.227 125.332C122.406 127.163 123.322 129.332 123.974 131.841C124.651 134.324 125.178 137.045 125.554 140.005V141.736C125.178 144.57 124.614 147.204 123.861 149.637C123.109 152.07 122.118 154.202 120.889 156.034C119.66 157.84 118.13 159.244 116.299 160.248C114.493 161.251 112.335 161.752 109.827 161.752C107.319 161.752 105.049 161.238 103.017 160.21C101.01 159.181 99.2922 157.739 97.8624 155.883C96.4327 154.027 95.329 151.845 94.5514 149.336C93.7989 146.828 93.4227 144.094 93.4227 141.134ZM104.259 140.344V141.134C104.259 142.815 104.422 144.382 104.748 145.837C105.074 147.292 105.576 148.584 106.253 149.713C106.955 150.816 107.82 151.682 108.849 152.309C109.902 152.911 111.144 153.212 112.574 153.212C114.555 153.212 116.173 152.798 117.427 151.97C118.682 151.117 119.622 149.951 120.249 148.471C120.876 146.991 121.24 145.285 121.34 143.354V138.425C121.29 136.845 121.077 135.428 120.701 134.173C120.324 132.894 119.798 131.803 119.121 130.9C118.443 129.997 117.565 129.295 116.487 128.793C115.408 128.291 114.129 128.041 112.649 128.041C111.219 128.041 109.978 128.367 108.924 129.019C107.896 129.646 107.03 130.511 106.328 131.615C105.651 132.719 105.137 134.023 104.785 135.528C104.434 137.008 104.259 138.613 104.259 140.344ZM163.142 151.255V120.29H173.978V161H163.781L163.142 151.255ZM164.346 142.902L167.544 142.827C167.544 145.536 167.23 148.057 166.603 150.39C165.976 152.697 165.035 154.704 163.781 156.41C162.527 158.09 160.947 159.407 159.041 160.36C157.134 161.288 154.889 161.752 152.306 161.752C150.324 161.752 148.493 161.477 146.812 160.925C145.157 160.348 143.727 159.457 142.523 158.253C141.344 157.024 140.416 155.457 139.739 153.55C139.087 151.619 138.761 149.299 138.761 146.59V120.29H149.597V146.665C149.597 147.869 149.735 148.885 150.011 149.713C150.312 150.54 150.725 151.218 151.252 151.744C151.779 152.271 152.393 152.647 153.096 152.873C153.823 153.099 154.626 153.212 155.504 153.212C157.736 153.212 159.492 152.76 160.771 151.857C162.076 150.954 162.991 149.725 163.518 148.17C164.07 146.59 164.346 144.834 164.346 142.902ZM200.992 161.752C197.832 161.752 194.997 161.251 192.489 160.248C189.981 159.219 187.849 157.802 186.093 155.996C184.362 154.19 183.033 152.095 182.105 149.713C181.177 147.305 180.713 144.746 180.713 142.037V140.532C180.713 137.447 181.151 134.625 182.029 132.066C182.907 129.508 184.161 127.288 185.792 125.407C187.447 123.526 189.454 122.083 191.812 121.08C194.17 120.052 196.829 119.537 199.788 119.537C202.673 119.537 205.231 120.014 207.464 120.967C209.696 121.92 211.565 123.275 213.07 125.031C214.6 126.786 215.754 128.893 216.531 131.352C217.309 133.785 217.698 136.494 217.698 139.479V143.994H185.34V136.77H207.05V135.942C207.05 134.437 206.774 133.095 206.222 131.916C205.695 130.712 204.893 129.759 203.814 129.056C202.736 128.354 201.356 128.003 199.675 128.003C198.246 128.003 197.017 128.316 195.988 128.944C194.96 129.571 194.12 130.449 193.467 131.577C192.84 132.706 192.364 134.035 192.038 135.566C191.737 137.071 191.586 138.726 191.586 140.532V142.037C191.586 143.667 191.812 145.172 192.263 146.552C192.74 147.932 193.405 149.123 194.257 150.126C195.135 151.13 196.189 151.907 197.418 152.459C198.672 153.011 200.089 153.287 201.67 153.287C203.626 153.287 205.445 152.911 207.125 152.158C208.831 151.381 210.298 150.214 211.527 148.659L216.795 154.378C215.942 155.607 214.776 156.786 213.296 157.915C211.841 159.044 210.085 159.972 208.028 160.699C205.971 161.401 203.626 161.752 200.992 161.752ZM193.354 114.759L200.729 103.17H212.506L202.159 114.759H193.354Z" fill="#1E1E1E"/>
<path d="M63.1016 174.426L55.3672 198H49.1367L59.7031 169.562H63.668L63.1016 174.426ZM69.5273 198L61.7734 174.426L61.1484 169.562H65.1523L75.7773 198H69.5273ZM69.1758 187.414V192.004H54.1562V187.414H69.1758ZM89.4883 192.16C89.4883 191.757 89.3711 191.392 89.1367 191.066C88.9023 190.741 88.4661 190.441 87.8281 190.168C87.2031 189.882 86.2982 189.621 85.1133 189.387C84.0456 189.152 83.0495 188.859 82.125 188.508C81.2135 188.143 80.4193 187.707 79.7422 187.199C79.0781 186.691 78.5573 186.092 78.1797 185.402C77.8021 184.699 77.6133 183.898 77.6133 183C77.6133 182.115 77.8021 181.281 78.1797 180.5C78.5703 179.719 79.1237 179.029 79.8398 178.43C80.569 177.818 81.4544 177.342 82.4961 177.004C83.5508 176.652 84.7357 176.477 86.0508 176.477C87.8867 176.477 89.4622 176.77 90.7773 177.355C92.1055 177.941 93.1211 178.749 93.8242 179.777C94.5404 180.793 94.8984 181.952 94.8984 183.254H89.2734C89.2734 182.707 89.1562 182.219 88.9219 181.789C88.7005 181.346 88.349 181.001 87.8672 180.754C87.3984 180.493 86.7865 180.363 86.0312 180.363C85.4062 180.363 84.8659 180.474 84.4102 180.695C83.9544 180.904 83.6029 181.19 83.3555 181.555C83.1211 181.906 83.0039 182.297 83.0039 182.727C83.0039 183.052 83.069 183.345 83.1992 183.605C83.3424 183.853 83.5703 184.081 83.8828 184.289C84.1953 184.497 84.599 184.693 85.0938 184.875C85.6016 185.044 86.2266 185.201 86.9688 185.344C88.4922 185.656 89.8529 186.066 91.0508 186.574C92.2487 187.069 93.1992 187.746 93.9023 188.605C94.6055 189.452 94.957 190.565 94.957 191.945C94.957 192.883 94.7487 193.742 94.332 194.523C93.9154 195.305 93.3164 195.988 92.5352 196.574C91.7539 197.147 90.8164 197.596 89.7227 197.922C88.6419 198.234 87.4245 198.391 86.0703 198.391C84.1042 198.391 82.4375 198.039 81.0703 197.336C79.7161 196.633 78.6875 195.741 77.9844 194.66C77.2943 193.566 76.9492 192.447 76.9492 191.301H82.2812C82.3073 192.069 82.5026 192.688 82.8672 193.156C83.2448 193.625 83.7201 193.964 84.293 194.172C84.8789 194.38 85.5104 194.484 86.1875 194.484C86.9167 194.484 87.5221 194.387 88.0039 194.191C88.4857 193.983 88.8503 193.71 89.0977 193.371C89.3581 193.02 89.4883 192.616 89.4883 192.16ZM110.035 192.16C110.035 191.757 109.918 191.392 109.684 191.066C109.449 190.741 109.013 190.441 108.375 190.168C107.75 189.882 106.845 189.621 105.66 189.387C104.592 189.152 103.596 188.859 102.672 188.508C101.76 188.143 100.966 187.707 100.289 187.199C99.625 186.691 99.1042 186.092 98.7266 185.402C98.349 184.699 98.1602 183.898 98.1602 183C98.1602 182.115 98.349 181.281 98.7266 180.5C99.1172 179.719 99.6706 179.029 100.387 178.43C101.116 177.818 102.001 177.342 103.043 177.004C104.098 176.652 105.283 176.477 106.598 176.477C108.434 176.477 110.009 176.77 111.324 177.355C112.652 177.941 113.668 178.749 114.371 179.777C115.087 180.793 115.445 181.952 115.445 183.254H109.82C109.82 182.707 109.703 182.219 109.469 181.789C109.247 181.346 108.896 181.001 108.414 180.754C107.945 180.493 107.333 180.363 106.578 180.363C105.953 180.363 105.413 180.474 104.957 180.695C104.501 180.904 104.15 181.19 103.902 181.555C103.668 181.906 103.551 182.297 103.551 182.727C103.551 183.052 103.616 183.345 103.746 183.605C103.889 183.853 104.117 184.081 104.43 184.289C104.742 184.497 105.146 184.693 105.641 184.875C106.148 185.044 106.773 185.201 107.516 185.344C109.039 185.656 110.4 186.066 111.598 186.574C112.796 187.069 113.746 187.746 114.449 188.605C115.152 189.452 115.504 190.565 115.504 191.945C115.504 192.883 115.296 193.742 114.879 194.523C114.462 195.305 113.863 195.988 113.082 196.574C112.301 197.147 111.363 197.596 110.27 197.922C109.189 198.234 107.971 198.391 106.617 198.391C104.651 198.391 102.984 198.039 101.617 197.336C100.263 196.633 99.2344 195.741 98.5312 194.66C97.8411 193.566 97.4961 192.447 97.4961 191.301H102.828C102.854 192.069 103.049 192.688 103.414 193.156C103.792 193.625 104.267 193.964 104.84 194.172C105.426 194.38 106.057 194.484 106.734 194.484C107.464 194.484 108.069 194.387 108.551 194.191C109.033 193.983 109.397 193.71 109.645 193.371C109.905 193.02 110.035 192.616 110.035 192.16ZM118.258 187.648V187.238C118.258 185.689 118.479 184.263 118.922 182.961C119.365 181.646 120.009 180.507 120.855 179.543C121.702 178.579 122.743 177.831 123.98 177.297C125.217 176.75 126.637 176.477 128.238 176.477C129.84 176.477 131.266 176.75 132.516 177.297C133.766 177.831 134.814 178.579 135.66 179.543C136.52 180.507 137.171 181.646 137.613 182.961C138.056 184.263 138.277 185.689 138.277 187.238V187.648C138.277 189.185 138.056 190.611 137.613 191.926C137.171 193.228 136.52 194.367 135.66 195.344C134.814 196.307 133.772 197.056 132.535 197.59C131.298 198.124 129.879 198.391 128.277 198.391C126.676 198.391 125.25 198.124 124 197.59C122.763 197.056 121.715 196.307 120.855 195.344C120.009 194.367 119.365 193.228 118.922 191.926C118.479 190.611 118.258 189.185 118.258 187.648ZM123.883 187.238V187.648C123.883 188.534 123.961 189.361 124.117 190.129C124.273 190.897 124.521 191.574 124.859 192.16C125.211 192.733 125.667 193.182 126.227 193.508C126.786 193.833 127.47 193.996 128.277 193.996C129.059 193.996 129.729 193.833 130.289 193.508C130.849 193.182 131.298 192.733 131.637 192.16C131.975 191.574 132.223 190.897 132.379 190.129C132.548 189.361 132.633 188.534 132.633 187.648V187.238C132.633 186.379 132.548 185.572 132.379 184.816C132.223 184.048 131.969 183.371 131.617 182.785C131.279 182.186 130.829 181.717 130.27 181.379C129.71 181.04 129.033 180.871 128.238 180.871C127.444 180.871 126.767 181.04 126.207 181.379C125.66 181.717 125.211 182.186 124.859 182.785C124.521 183.371 124.273 184.048 124.117 184.816C123.961 185.572 123.883 186.379 123.883 187.238ZM150.465 193.996C151.155 193.996 151.767 193.866 152.301 193.605C152.835 193.332 153.251 192.954 153.551 192.473C153.863 191.978 154.026 191.398 154.039 190.734H159.332C159.319 192.219 158.922 193.54 158.141 194.699C157.359 195.845 156.311 196.75 154.996 197.414C153.681 198.065 152.21 198.391 150.582 198.391C148.941 198.391 147.509 198.117 146.285 197.57C145.074 197.023 144.065 196.268 143.258 195.305C142.451 194.328 141.845 193.195 141.441 191.906C141.038 190.604 140.836 189.211 140.836 187.727V187.16C140.836 185.663 141.038 184.27 141.441 182.98C141.845 181.678 142.451 180.546 143.258 179.582C144.065 178.605 145.074 177.844 146.285 177.297C147.496 176.75 148.915 176.477 150.543 176.477C152.275 176.477 153.792 176.809 155.094 177.473C156.409 178.137 157.438 179.087 158.18 180.324C158.935 181.548 159.319 183 159.332 184.68H154.039C154.026 183.977 153.876 183.339 153.59 182.766C153.316 182.193 152.913 181.737 152.379 181.398C151.858 181.047 151.214 180.871 150.445 180.871C149.625 180.871 148.954 181.047 148.434 181.398C147.913 181.737 147.509 182.206 147.223 182.805C146.936 183.391 146.734 184.061 146.617 184.816C146.513 185.559 146.461 186.34 146.461 187.16V187.727C146.461 188.547 146.513 189.335 146.617 190.09C146.721 190.845 146.917 191.516 147.203 192.102C147.503 192.688 147.913 193.15 148.434 193.488C148.954 193.827 149.632 193.996 150.465 193.996ZM168.531 176.867V198H162.887V176.867H168.531ZM162.535 171.359C162.535 170.539 162.822 169.862 163.395 169.328C163.967 168.794 164.736 168.527 165.699 168.527C166.65 168.527 167.411 168.794 167.984 169.328C168.57 169.862 168.863 170.539 168.863 171.359C168.863 172.18 168.57 172.857 167.984 173.391C167.411 173.924 166.65 174.191 165.699 174.191C164.736 174.191 163.967 173.924 163.395 173.391C162.822 172.857 162.535 172.18 162.535 171.359ZM184.586 193.234V183.82C184.586 183.143 184.475 182.564 184.254 182.082C184.033 181.587 183.688 181.203 183.219 180.93C182.763 180.656 182.171 180.52 181.441 180.52C180.816 180.52 180.276 180.63 179.82 180.852C179.365 181.06 179.013 181.366 178.766 181.77C178.518 182.16 178.395 182.622 178.395 183.156H172.77C172.77 182.258 172.978 181.405 173.395 180.598C173.811 179.79 174.417 179.081 175.211 178.469C176.005 177.844 176.949 177.355 178.043 177.004C179.15 176.652 180.387 176.477 181.754 176.477C183.395 176.477 184.853 176.75 186.129 177.297C187.405 177.844 188.408 178.664 189.137 179.758C189.879 180.852 190.25 182.219 190.25 183.859V192.902C190.25 194.061 190.322 195.012 190.465 195.754C190.608 196.483 190.816 197.121 191.09 197.668V198H185.406C185.133 197.427 184.924 196.711 184.781 195.852C184.651 194.979 184.586 194.107 184.586 193.234ZM185.328 185.129L185.367 188.312H182.223C181.48 188.312 180.836 188.397 180.289 188.566C179.742 188.736 179.293 188.977 178.941 189.289C178.59 189.589 178.329 189.94 178.16 190.344C178.004 190.747 177.926 191.19 177.926 191.672C177.926 192.154 178.036 192.59 178.258 192.98C178.479 193.358 178.798 193.658 179.215 193.879C179.632 194.087 180.12 194.191 180.68 194.191C181.526 194.191 182.262 194.022 182.887 193.684C183.512 193.345 183.993 192.928 184.332 192.434C184.684 191.939 184.866 191.47 184.879 191.027L186.363 193.41C186.155 193.944 185.868 194.497 185.504 195.07C185.152 195.643 184.703 196.184 184.156 196.691C183.609 197.186 182.952 197.596 182.184 197.922C181.415 198.234 180.504 198.391 179.449 198.391C178.108 198.391 176.891 198.124 175.797 197.59C174.716 197.043 173.857 196.294 173.219 195.344C172.594 194.38 172.281 193.286 172.281 192.062C172.281 190.956 172.49 189.973 172.906 189.113C173.323 188.254 173.935 187.531 174.742 186.945C175.562 186.346 176.585 185.897 177.809 185.598C179.033 185.285 180.452 185.129 182.066 185.129H185.328ZM204.938 176.867V180.852H192.633V176.867H204.938ZM195.68 171.652H201.305V191.633C201.305 192.245 201.383 192.714 201.539 193.039C201.708 193.365 201.956 193.592 202.281 193.723C202.607 193.84 203.017 193.898 203.512 193.898C203.863 193.898 204.176 193.885 204.449 193.859C204.736 193.82 204.977 193.781 205.172 193.742L205.191 197.883C204.71 198.039 204.189 198.163 203.629 198.254C203.069 198.345 202.451 198.391 201.773 198.391C200.536 198.391 199.456 198.189 198.531 197.785C197.62 197.368 196.917 196.704 196.422 195.793C195.927 194.882 195.68 193.684 195.68 192.199V171.652ZM214.078 176.867V198H208.434V176.867H214.078ZM208.082 171.359C208.082 170.539 208.368 169.862 208.941 169.328C209.514 168.794 210.283 168.527 211.246 168.527C212.197 168.527 212.958 168.794 213.531 169.328C214.117 169.862 214.41 170.539 214.41 171.359C214.41 172.18 214.117 172.857 213.531 173.391C212.958 173.924 212.197 174.191 211.246 174.191C210.283 174.191 209.514 173.924 208.941 173.391C208.368 172.857 208.082 172.18 208.082 171.359ZM217.828 187.648V187.238C217.828 185.689 218.049 184.263 218.492 182.961C218.935 181.646 219.579 180.507 220.426 179.543C221.272 178.579 222.314 177.831 223.551 177.297C224.788 176.75 226.207 176.477 227.809 176.477C229.41 176.477 230.836 176.75 232.086 177.297C233.336 177.831 234.384 178.579 235.23 179.543C236.09 180.507 236.741 181.646 237.184 182.961C237.626 184.263 237.848 185.689 237.848 187.238V187.648C237.848 189.185 237.626 190.611 237.184 191.926C236.741 193.228 236.09 194.367 235.23 195.344C234.384 196.307 233.342 197.056 232.105 197.59C230.868 198.124 229.449 198.391 227.848 198.391C226.246 198.391 224.82 198.124 223.57 197.59C222.333 197.056 221.285 196.307 220.426 195.344C219.579 194.367 218.935 193.228 218.492 191.926C218.049 190.611 217.828 189.185 217.828 187.648ZM223.453 187.238V187.648C223.453 188.534 223.531 189.361 223.688 190.129C223.844 190.897 224.091 191.574 224.43 192.16C224.781 192.733 225.237 193.182 225.797 193.508C226.357 193.833 227.04 193.996 227.848 193.996C228.629 193.996 229.299 193.833 229.859 193.508C230.419 193.182 230.868 192.733 231.207 192.16C231.546 191.574 231.793 190.897 231.949 190.129C232.118 189.361 232.203 188.534 232.203 187.648V187.238C232.203 186.379 232.118 185.572 231.949 184.816C231.793 184.048 231.539 183.371 231.188 182.785C230.849 182.186 230.4 181.717 229.84 181.379C229.28 181.04 228.603 180.871 227.809 180.871C227.014 180.871 226.337 181.04 225.777 181.379C225.23 181.717 224.781 182.186 224.43 182.785C224.091 183.371 223.844 184.048 223.688 184.816C223.531 185.572 223.453 186.379 223.453 187.238ZM246.812 181.379V198H241.188V176.867H246.461L246.812 181.379ZM245.992 186.691H244.469C244.469 185.129 244.671 183.723 245.074 182.473C245.478 181.21 246.044 180.135 246.773 179.25C247.503 178.352 248.368 177.668 249.371 177.199C250.387 176.717 251.52 176.477 252.77 176.477C253.759 176.477 254.664 176.62 255.484 176.906C256.305 177.193 257.008 177.648 257.594 178.273C258.193 178.898 258.648 179.725 258.961 180.754C259.286 181.783 259.449 183.039 259.449 184.523V198H253.785V184.504C253.785 183.566 253.655 182.837 253.395 182.316C253.134 181.796 252.75 181.431 252.242 181.223C251.747 181.001 251.135 180.891 250.406 180.891C249.651 180.891 248.993 181.04 248.434 181.34C247.887 181.639 247.431 182.056 247.066 182.59C246.715 183.111 246.448 183.723 246.266 184.426C246.083 185.129 245.992 185.884 245.992 186.691Z" fill="#1E1E1E"/>
</svg>
