<svg width="1081" height="353" viewBox="0 0 1081 353" fill="none" xmlns="http://www.w3.org/2000/svg">
<path d="M148.881 80.5967L119.877 169H96.5127L136.137 62.3594H151.005L148.881 80.5967ZM172.978 169L143.9 80.5967L141.557 62.3594H156.571L196.415 169H172.978ZM171.659 129.303V146.515H115.336V129.303H171.659ZM231.864 169H210.624V82.7207C210.624 76.7148 211.796 71.6611 214.14 67.5596C216.532 63.4092 219.877 60.2842 224.174 58.1846C228.52 56.0361 233.671 54.9619 239.628 54.9619C241.581 54.9619 243.461 55.1084 245.268 55.4014C247.074 55.6455 248.832 55.9629 250.541 56.3535L250.321 72.2471C249.394 72.0029 248.417 71.832 247.392 71.7344C246.366 71.6367 245.17 71.5879 243.803 71.5879C241.264 71.5879 239.091 72.0273 237.284 72.9062C235.526 73.7363 234.184 74.9814 233.256 76.6416C232.328 78.3018 231.864 80.3281 231.864 82.7207V169ZM247.685 89.752V104.693H198.832V89.752H247.685ZM279.838 107.037V169H258.744V89.752H278.593L279.838 107.037ZM303.715 89.2393L303.349 108.795C302.323 108.648 301.078 108.526 299.613 108.429C298.197 108.282 296.903 108.209 295.731 108.209C292.753 108.209 290.165 108.6 287.968 109.381C285.819 110.113 284.013 111.212 282.548 112.677C281.132 114.142 280.058 115.924 279.325 118.023C278.642 120.123 278.251 122.516 278.153 125.201L273.905 123.883C273.905 118.756 274.418 114.044 275.443 109.747C276.469 105.401 277.958 101.617 279.911 98.3945C281.913 95.1719 284.354 92.6816 287.235 90.9238C290.116 89.166 293.412 88.2871 297.123 88.2871C298.295 88.2871 299.491 88.3848 300.712 88.5801C301.933 88.7266 302.934 88.9463 303.715 89.2393ZM335.941 89.752V169H314.774V89.752H335.941ZM313.456 69.0977C313.456 66.0215 314.53 63.4824 316.679 61.4805C318.827 59.4785 321.708 58.4775 325.321 58.4775C328.886 58.4775 331.742 59.4785 333.891 61.4805C336.088 63.4824 337.187 66.0215 337.187 69.0977C337.187 72.1738 336.088 74.7129 333.891 76.7148C331.742 78.7168 328.886 79.7178 325.321 79.7178C321.708 79.7178 318.827 78.7168 316.679 76.7148C314.53 74.7129 313.456 72.1738 313.456 69.0977ZM386.112 153.985C388.7 153.985 390.995 153.497 392.997 152.521C394.999 151.495 396.562 150.079 397.685 148.272C398.856 146.417 399.467 144.244 399.516 141.754H419.364C419.315 147.32 417.826 152.276 414.896 156.622C411.967 160.919 408.036 164.312 403.104 166.803C398.173 169.244 392.655 170.465 386.552 170.465C380.399 170.465 375.028 169.439 370.438 167.389C365.897 165.338 362.113 162.506 359.086 158.893C356.059 155.23 353.788 150.982 352.274 146.148C350.761 141.266 350.004 136.041 350.004 130.475V128.351C350.004 122.735 350.761 117.511 352.274 112.677C353.788 107.794 356.059 103.546 359.086 99.9326C362.113 96.2705 365.897 93.4141 370.438 91.3633C374.979 89.3125 380.302 88.2871 386.405 88.2871C392.899 88.2871 398.588 89.5322 403.471 92.0225C408.402 94.5127 412.26 98.0771 415.043 102.716C417.875 107.306 419.315 112.75 419.364 119.049H399.516C399.467 116.412 398.905 114.02 397.831 111.871C396.806 109.723 395.292 108.014 393.29 106.744C391.337 105.426 388.92 104.767 386.039 104.767C382.963 104.767 380.448 105.426 378.495 106.744C376.542 108.014 375.028 109.771 373.954 112.018C372.88 114.215 372.123 116.729 371.684 119.562C371.293 122.345 371.098 125.274 371.098 128.351V130.475C371.098 133.551 371.293 136.505 371.684 139.337C372.074 142.169 372.807 144.684 373.881 146.881C375.004 149.078 376.542 150.812 378.495 152.081C380.448 153.351 382.987 153.985 386.112 153.985ZM474.369 151.129V115.826C474.369 113.287 473.954 111.114 473.124 109.308C472.294 107.452 471 106.012 469.242 104.986C467.533 103.961 465.312 103.448 462.577 103.448C460.233 103.448 458.207 103.863 456.498 104.693C454.789 105.475 453.471 106.622 452.543 108.136C451.615 109.601 451.151 111.334 451.151 113.336H430.058C430.058 109.967 430.839 106.769 432.401 103.741C433.964 100.714 436.234 98.0527 439.213 95.7578C442.191 93.4141 445.731 91.583 449.833 90.2646C453.983 88.9463 458.622 88.2871 463.749 88.2871C469.901 88.2871 475.37 89.3125 480.155 91.3633C484.94 93.4141 488.7 96.4902 491.435 100.592C494.218 104.693 495.609 109.82 495.609 115.973V149.884C495.609 154.229 495.878 157.794 496.415 160.577C496.952 163.312 497.733 165.704 498.759 167.755V169H477.445C476.42 166.852 475.639 164.166 475.102 160.943C474.613 157.672 474.369 154.4 474.369 151.129ZM477.152 120.733L477.299 132.672H465.507C462.724 132.672 460.307 132.989 458.256 133.624C456.205 134.259 454.521 135.162 453.202 136.334C451.884 137.457 450.907 138.775 450.272 140.289C449.687 141.803 449.394 143.463 449.394 145.27C449.394 147.076 449.809 148.712 450.639 150.177C451.469 151.593 452.665 152.716 454.228 153.546C455.79 154.327 457.621 154.718 459.721 154.718C462.895 154.718 465.653 154.083 467.997 152.813C470.341 151.544 472.147 149.981 473.417 148.126C474.735 146.271 475.419 144.513 475.468 142.853L481.034 151.788C480.253 153.79 479.179 155.865 477.812 158.014C476.493 160.162 474.809 162.188 472.758 164.093C470.707 165.948 468.241 167.486 465.36 168.707C462.479 169.879 459.062 170.465 455.106 170.465C450.077 170.465 445.512 169.464 441.41 167.462C437.357 165.411 434.135 162.604 431.742 159.039C429.398 155.426 428.227 151.324 428.227 146.734C428.227 142.584 429.008 138.897 430.57 135.675C432.133 132.452 434.428 129.742 437.455 127.545C440.531 125.299 444.364 123.614 448.954 122.491C453.544 121.319 458.866 120.733 464.921 120.733H477.152ZM592.289 122.198H564.896L564.75 107.11H587.748C591.801 107.11 595.121 106.598 597.709 105.572C600.297 104.498 602.226 102.96 603.495 100.958C604.813 98.9072 605.473 96.417 605.473 93.4873C605.473 90.167 604.838 87.4814 603.568 85.4307C602.348 83.3799 600.419 81.8906 597.782 80.9629C595.194 80.0352 591.85 79.5713 587.748 79.5713H572.514V169H550.541V62.3594H587.748C593.949 62.3594 599.491 62.9453 604.374 64.1172C609.306 65.2891 613.48 67.0713 616.898 69.4639C620.316 71.8564 622.929 74.8838 624.735 78.5459C626.542 82.1592 627.445 86.4561 627.445 91.4365C627.445 95.8311 626.444 99.8838 624.442 103.595C622.489 107.306 619.389 110.333 615.141 112.677C610.941 115.021 605.448 116.314 598.661 116.559L592.289 122.198ZM591.337 169H558.891L567.46 151.861H591.337C595.194 151.861 598.344 151.251 600.785 150.03C603.227 148.761 605.033 147.052 606.205 144.903C607.377 142.755 607.963 140.289 607.963 137.506C607.963 134.381 607.426 131.671 606.352 129.376C605.326 127.081 603.666 125.323 601.371 124.103C599.076 122.833 596.049 122.198 592.289 122.198H571.122L571.269 107.11H597.636L602.689 113.043C609.184 112.945 614.408 114.093 618.363 116.485C622.367 118.829 625.272 121.881 627.079 125.641C628.935 129.4 629.862 133.429 629.862 137.726C629.862 144.562 628.373 150.323 625.395 155.011C622.416 159.649 618.046 163.141 612.284 165.484C606.571 167.828 599.589 169 591.337 169ZM681.498 170.465C675.346 170.465 669.828 169.488 664.945 167.535C660.062 165.533 655.912 162.774 652.494 159.259C649.125 155.743 646.537 151.666 644.73 147.027C642.924 142.34 642.021 137.359 642.021 132.086V129.156C642.021 123.15 642.875 117.657 644.584 112.677C646.293 107.696 648.734 103.375 651.908 99.7129C655.131 96.0508 659.037 93.2432 663.627 91.29C668.217 89.2881 673.393 88.2871 679.154 88.2871C684.77 88.2871 689.75 89.2148 694.096 91.0703C698.441 92.9258 702.079 95.5625 705.009 98.9805C707.987 102.398 710.233 106.5 711.747 111.285C713.261 116.021 714.018 121.295 714.018 127.105V135.895H651.029V121.832H693.29V120.221C693.29 117.291 692.753 114.679 691.679 112.384C690.653 110.04 689.091 108.185 686.991 106.817C684.892 105.45 682.206 104.767 678.935 104.767C676.151 104.767 673.759 105.377 671.757 106.598C669.755 107.818 668.119 109.527 666.85 111.725C665.629 113.922 664.701 116.51 664.066 119.488C663.48 122.418 663.188 125.641 663.188 129.156V132.086C663.188 135.26 663.627 138.189 664.506 140.875C665.434 143.561 666.728 145.88 668.388 147.833C670.097 149.786 672.147 151.3 674.54 152.374C676.981 153.448 679.74 153.985 682.816 153.985C686.625 153.985 690.165 153.253 693.437 151.788C696.757 150.274 699.613 148.004 702.006 144.977L712.26 156.109C710.6 158.502 708.329 160.797 705.448 162.994C702.616 165.191 699.198 166.998 695.194 168.414C691.19 169.781 686.625 170.465 681.498 170.465ZM666.63 78.9854L680.985 56.4268H703.91L683.769 78.9854H666.63ZM776.2 89.752H795.316V166.363C795.316 173.59 793.705 179.718 790.482 184.747C787.309 189.825 782.865 193.658 777.152 196.246C771.439 198.883 764.799 200.201 757.23 200.201C753.91 200.201 750.395 199.762 746.684 198.883C743.021 198.004 739.506 196.637 736.137 194.781C732.816 192.926 730.033 190.582 727.787 187.75L737.089 175.299C739.53 178.131 742.362 180.328 745.585 181.891C748.808 183.502 752.372 184.308 756.278 184.308C760.087 184.308 763.31 183.6 765.946 182.184C768.583 180.816 770.609 178.79 772.025 176.104C773.441 173.468 774.149 170.27 774.149 166.51V108.062L776.2 89.752ZM722.88 130.328V128.79C722.88 122.735 723.612 117.242 725.077 112.311C726.591 107.33 728.715 103.058 731.449 99.4932C734.232 95.9287 737.602 93.1699 741.557 91.2168C745.512 89.2637 749.979 88.2871 754.96 88.2871C760.233 88.2871 764.652 89.2637 768.217 91.2168C771.781 93.1699 774.711 95.9531 777.006 99.5664C779.301 103.131 781.083 107.354 782.353 112.237C783.671 117.071 784.696 122.369 785.429 128.131V131.5C784.696 137.018 783.598 142.145 782.133 146.881C780.668 151.617 778.739 155.768 776.347 159.332C773.954 162.848 770.976 165.582 767.411 167.535C763.896 169.488 759.696 170.465 754.813 170.465C749.931 170.465 745.512 169.464 741.557 167.462C737.65 165.46 734.306 162.652 731.522 159.039C728.739 155.426 726.591 151.178 725.077 146.295C723.612 141.412 722.88 136.09 722.88 130.328ZM743.974 128.79V130.328C743.974 133.6 744.291 136.651 744.926 139.483C745.561 142.315 746.537 144.83 747.855 147.027C749.223 149.176 750.907 150.86 752.909 152.081C754.96 153.253 757.377 153.839 760.16 153.839C764.018 153.839 767.167 153.033 769.608 151.422C772.05 149.762 773.881 147.491 775.102 144.61C776.322 141.729 777.03 138.409 777.226 134.649V125.055C777.128 121.979 776.713 119.22 775.98 116.778C775.248 114.288 774.223 112.164 772.904 110.406C771.586 108.648 769.877 107.281 767.777 106.305C765.678 105.328 763.188 104.84 760.307 104.84C757.523 104.84 755.106 105.475 753.056 106.744C751.054 107.965 749.369 109.649 748.002 111.798C746.684 113.946 745.683 116.485 744.999 119.415C744.315 122.296 743.974 125.421 743.974 128.79ZM858.598 150.03V89.752H879.691V169H859.843L858.598 150.03ZM860.941 133.771L867.167 133.624C867.167 138.897 866.557 143.805 865.336 148.346C864.115 152.838 862.284 156.744 859.843 160.064C857.401 163.336 854.325 165.899 850.614 167.755C846.903 169.562 842.533 170.465 837.504 170.465C833.646 170.465 830.082 169.928 826.811 168.854C823.588 167.73 820.805 165.997 818.461 163.653C816.166 161.261 814.359 158.209 813.041 154.498C811.771 150.738 811.137 146.222 811.137 140.948V89.752H832.23V141.095C832.23 143.438 832.499 145.416 833.036 147.027C833.622 148.639 834.428 149.957 835.453 150.982C836.479 152.008 837.675 152.74 839.042 153.18C840.458 153.619 842.021 153.839 843.729 153.839C848.075 153.839 851.493 152.96 853.983 151.202C856.522 149.444 858.305 147.052 859.33 144.024C860.404 140.948 860.941 137.53 860.941 133.771ZM932.279 170.465C926.127 170.465 920.609 169.488 915.727 167.535C910.844 165.533 906.693 162.774 903.275 159.259C899.906 155.743 897.318 151.666 895.512 147.027C893.705 142.34 892.802 137.359 892.802 132.086V129.156C892.802 123.15 893.656 117.657 895.365 112.677C897.074 107.696 899.516 103.375 902.689 99.7129C905.912 96.0508 909.818 93.2432 914.408 91.29C918.998 89.2881 924.174 88.2871 929.936 88.2871C935.551 88.2871 940.531 89.2148 944.877 91.0703C949.223 92.9258 952.86 95.5625 955.79 98.9805C958.769 102.398 961.015 106.5 962.528 111.285C964.042 116.021 964.799 121.295 964.799 127.105V135.895H901.811V121.832H944.071V120.221C944.071 117.291 943.534 114.679 942.46 112.384C941.435 110.04 939.872 108.185 937.772 106.817C935.673 105.45 932.987 104.767 929.716 104.767C926.933 104.767 924.54 105.377 922.538 106.598C920.536 107.818 918.9 109.527 917.631 111.725C916.41 113.922 915.482 116.51 914.848 119.488C914.262 122.418 913.969 125.641 913.969 129.156V132.086C913.969 135.26 914.408 138.189 915.287 140.875C916.215 143.561 917.509 145.88 919.169 147.833C920.878 149.786 922.929 151.3 925.321 152.374C927.763 153.448 930.521 153.985 933.598 153.985C937.406 153.985 940.946 153.253 944.218 151.788C947.538 150.274 950.395 148.004 952.787 144.977L963.041 156.109C961.381 158.502 959.11 160.797 956.229 162.994C953.397 165.191 949.979 166.998 945.976 168.414C941.972 169.781 937.406 170.465 932.279 170.465ZM917.411 78.9854L931.767 56.4268H954.691L934.55 78.9854H917.411Z" fill="#1E1E1E"/>
<g filter="url(#filter0_f_210_90)">
<path d="M212.6 250H247.6L193.6 110H154.6L100.4 250H135.6L146 221.2H202.2L212.6 250ZM157.2 190.2L174 143.6L191 190.2H157.2ZM327.833 100V157.6C321.233 150.2 311.433 145.8 299.633 145.8C273.233 145.8 252.233 167.6 252.233 199C252.233 230.6 273.433 252.6 298.833 252.6C311.833 252.6 322.433 246.8 329.233 237.2L330.433 250H359.633V100H327.833ZM307.233 223C293.833 223 284.833 213.4 284.833 199C284.833 185 293.833 175.2 307.233 175.2C320.433 175.2 329.833 184.8 329.833 199.2C329.833 214 320.033 223 307.233 223ZM410.823 210.2H479.823C480.623 206.8 481.423 198.4 481.423 194.6C481.423 170 465.423 145.8 431.223 145.8C399.023 145.8 377.623 168.4 377.623 199C377.623 231.4 401.423 252.6 433.223 252.6C450.023 252.6 464.823 246.6 475.423 236.2L454.223 217.4C448.623 222.6 440.823 225.6 432.223 225.6C421.023 225.6 413.623 220.4 410.823 210.2ZM430.823 173.2C442.223 173.2 449.823 179.2 451.023 189.6H410.623C413.223 179.4 420.223 173.2 430.823 173.2ZM529.964 210.2H598.964C599.764 206.8 600.564 198.4 600.564 194.6C600.564 170 584.564 145.8 550.364 145.8C518.164 145.8 496.764 168.4 496.764 199C496.764 231.4 520.564 252.6 552.364 252.6C569.164 252.6 583.964 246.6 594.564 236.2L573.364 217.4C567.764 222.6 559.964 225.6 551.364 225.6C540.164 225.6 532.764 220.4 529.964 210.2ZM549.964 173.2C561.364 173.2 568.964 179.2 570.164 189.6H529.764C532.364 179.4 539.364 173.2 549.964 173.2ZM743.105 145.8C729.305 145.8 717.105 152 709.705 162.2C703.305 151.8 692.105 145.8 678.705 145.8C666.105 145.8 655.505 151 649.105 160L647.905 148.4H618.905V250H650.705V191.4C650.705 181 659.505 175.2 668.705 175.2C678.305 175.2 683.705 181.2 683.705 191.8V250H715.505V191.4C715.505 181 724.305 175.2 733.705 175.2C743.105 175.2 748.705 181 748.705 191.8V250H780.505V184C780.505 160.6 764.905 145.8 743.105 145.8ZM820.141 252.6C830.741 252.6 839.541 244 839.541 233.2C839.541 222.6 830.741 213.8 820.141 213.8C809.341 213.8 800.741 222.6 800.741 233.2C800.741 244 809.341 252.6 820.141 252.6Z" fill="#1E1E1E" fill-opacity="0.2"/>
</g>
<path d="M174.102 210.426L166.367 234H160.137L170.703 205.562H174.668L174.102 210.426ZM180.527 234L172.773 210.426L172.148 205.562H176.152L186.777 234H180.527ZM180.176 223.414V228.004H165.156V223.414H180.176ZM200.488 228.16C200.488 227.757 200.371 227.392 200.137 227.066C199.902 226.741 199.466 226.441 198.828 226.168C198.203 225.882 197.298 225.621 196.113 225.387C195.046 225.152 194.049 224.859 193.125 224.508C192.214 224.143 191.419 223.707 190.742 223.199C190.078 222.691 189.557 222.092 189.18 221.402C188.802 220.699 188.613 219.898 188.613 219C188.613 218.115 188.802 217.281 189.18 216.5C189.57 215.719 190.124 215.029 190.84 214.43C191.569 213.818 192.454 213.342 193.496 213.004C194.551 212.652 195.736 212.477 197.051 212.477C198.887 212.477 200.462 212.77 201.777 213.355C203.105 213.941 204.121 214.749 204.824 215.777C205.54 216.793 205.898 217.952 205.898 219.254H200.273C200.273 218.707 200.156 218.219 199.922 217.789C199.701 217.346 199.349 217.001 198.867 216.754C198.398 216.493 197.786 216.363 197.031 216.363C196.406 216.363 195.866 216.474 195.41 216.695C194.954 216.904 194.603 217.19 194.355 217.555C194.121 217.906 194.004 218.297 194.004 218.727C194.004 219.052 194.069 219.345 194.199 219.605C194.342 219.853 194.57 220.081 194.883 220.289C195.195 220.497 195.599 220.693 196.094 220.875C196.602 221.044 197.227 221.201 197.969 221.344C199.492 221.656 200.853 222.066 202.051 222.574C203.249 223.069 204.199 223.746 204.902 224.605C205.605 225.452 205.957 226.565 205.957 227.945C205.957 228.883 205.749 229.742 205.332 230.523C204.915 231.305 204.316 231.988 203.535 232.574C202.754 233.147 201.816 233.596 200.723 233.922C199.642 234.234 198.424 234.391 197.07 234.391C195.104 234.391 193.438 234.039 192.07 233.336C190.716 232.633 189.688 231.741 188.984 230.66C188.294 229.566 187.949 228.447 187.949 227.301H193.281C193.307 228.069 193.503 228.688 193.867 229.156C194.245 229.625 194.72 229.964 195.293 230.172C195.879 230.38 196.51 230.484 197.188 230.484C197.917 230.484 198.522 230.387 199.004 230.191C199.486 229.983 199.85 229.71 200.098 229.371C200.358 229.02 200.488 228.616 200.488 228.16ZM221.035 228.16C221.035 227.757 220.918 227.392 220.684 227.066C220.449 226.741 220.013 226.441 219.375 226.168C218.75 225.882 217.845 225.621 216.66 225.387C215.592 225.152 214.596 224.859 213.672 224.508C212.76 224.143 211.966 223.707 211.289 223.199C210.625 222.691 210.104 222.092 209.727 221.402C209.349 220.699 209.16 219.898 209.16 219C209.16 218.115 209.349 217.281 209.727 216.5C210.117 215.719 210.671 215.029 211.387 214.43C212.116 213.818 213.001 213.342 214.043 213.004C215.098 212.652 216.283 212.477 217.598 212.477C219.434 212.477 221.009 212.77 222.324 213.355C223.652 213.941 224.668 214.749 225.371 215.777C226.087 216.793 226.445 217.952 226.445 219.254H220.82C220.82 218.707 220.703 218.219 220.469 217.789C220.247 217.346 219.896 217.001 219.414 216.754C218.945 216.493 218.333 216.363 217.578 216.363C216.953 216.363 216.413 216.474 215.957 216.695C215.501 216.904 215.15 217.19 214.902 217.555C214.668 217.906 214.551 218.297 214.551 218.727C214.551 219.052 214.616 219.345 214.746 219.605C214.889 219.853 215.117 220.081 215.43 220.289C215.742 220.497 216.146 220.693 216.641 220.875C217.148 221.044 217.773 221.201 218.516 221.344C220.039 221.656 221.4 222.066 222.598 222.574C223.796 223.069 224.746 223.746 225.449 224.605C226.152 225.452 226.504 226.565 226.504 227.945C226.504 228.883 226.296 229.742 225.879 230.523C225.462 231.305 224.863 231.988 224.082 232.574C223.301 233.147 222.363 233.596 221.27 233.922C220.189 234.234 218.971 234.391 217.617 234.391C215.651 234.391 213.984 234.039 212.617 233.336C211.263 232.633 210.234 231.741 209.531 230.66C208.841 229.566 208.496 228.447 208.496 227.301H213.828C213.854 228.069 214.049 228.688 214.414 229.156C214.792 229.625 215.267 229.964 215.84 230.172C216.426 230.38 217.057 230.484 217.734 230.484C218.464 230.484 219.069 230.387 219.551 230.191C220.033 229.983 220.397 229.71 220.645 229.371C220.905 229.02 221.035 228.616 221.035 228.16ZM229.258 223.648V223.238C229.258 221.689 229.479 220.263 229.922 218.961C230.365 217.646 231.009 216.507 231.855 215.543C232.702 214.579 233.743 213.831 234.98 213.297C236.217 212.75 237.637 212.477 239.238 212.477C240.84 212.477 242.266 212.75 243.516 213.297C244.766 213.831 245.814 214.579 246.66 215.543C247.52 216.507 248.171 217.646 248.613 218.961C249.056 220.263 249.277 221.689 249.277 223.238V223.648C249.277 225.185 249.056 226.611 248.613 227.926C248.171 229.228 247.52 230.367 246.66 231.344C245.814 232.307 244.772 233.056 243.535 233.59C242.298 234.124 240.879 234.391 239.277 234.391C237.676 234.391 236.25 234.124 235 233.59C233.763 233.056 232.715 232.307 231.855 231.344C231.009 230.367 230.365 229.228 229.922 227.926C229.479 226.611 229.258 225.185 229.258 223.648ZM234.883 223.238V223.648C234.883 224.534 234.961 225.361 235.117 226.129C235.273 226.897 235.521 227.574 235.859 228.16C236.211 228.733 236.667 229.182 237.227 229.508C237.786 229.833 238.47 229.996 239.277 229.996C240.059 229.996 240.729 229.833 241.289 229.508C241.849 229.182 242.298 228.733 242.637 228.16C242.975 227.574 243.223 226.897 243.379 226.129C243.548 225.361 243.633 224.534 243.633 223.648V223.238C243.633 222.379 243.548 221.572 243.379 220.816C243.223 220.048 242.969 219.371 242.617 218.785C242.279 218.186 241.829 217.717 241.27 217.379C240.71 217.04 240.033 216.871 239.238 216.871C238.444 216.871 237.767 217.04 237.207 217.379C236.66 217.717 236.211 218.186 235.859 218.785C235.521 219.371 235.273 220.048 235.117 220.816C234.961 221.572 234.883 222.379 234.883 223.238ZM261.465 229.996C262.155 229.996 262.767 229.866 263.301 229.605C263.835 229.332 264.251 228.954 264.551 228.473C264.863 227.978 265.026 227.398 265.039 226.734H270.332C270.319 228.219 269.922 229.54 269.141 230.699C268.359 231.845 267.311 232.75 265.996 233.414C264.681 234.065 263.21 234.391 261.582 234.391C259.941 234.391 258.509 234.117 257.285 233.57C256.074 233.023 255.065 232.268 254.258 231.305C253.451 230.328 252.845 229.195 252.441 227.906C252.038 226.604 251.836 225.211 251.836 223.727V223.16C251.836 221.663 252.038 220.27 252.441 218.98C252.845 217.678 253.451 216.546 254.258 215.582C255.065 214.605 256.074 213.844 257.285 213.297C258.496 212.75 259.915 212.477 261.543 212.477C263.275 212.477 264.792 212.809 266.094 213.473C267.409 214.137 268.438 215.087 269.18 216.324C269.935 217.548 270.319 219 270.332 220.68H265.039C265.026 219.977 264.876 219.339 264.59 218.766C264.316 218.193 263.913 217.737 263.379 217.398C262.858 217.047 262.214 216.871 261.445 216.871C260.625 216.871 259.954 217.047 259.434 217.398C258.913 217.737 258.509 218.206 258.223 218.805C257.936 219.391 257.734 220.061 257.617 220.816C257.513 221.559 257.461 222.34 257.461 223.16V223.727C257.461 224.547 257.513 225.335 257.617 226.09C257.721 226.845 257.917 227.516 258.203 228.102C258.503 228.688 258.913 229.15 259.434 229.488C259.954 229.827 260.632 229.996 261.465 229.996ZM279.531 212.867V234H273.887V212.867H279.531ZM273.535 207.359C273.535 206.539 273.822 205.862 274.395 205.328C274.967 204.794 275.736 204.527 276.699 204.527C277.65 204.527 278.411 204.794 278.984 205.328C279.57 205.862 279.863 206.539 279.863 207.359C279.863 208.18 279.57 208.857 278.984 209.391C278.411 209.924 277.65 210.191 276.699 210.191C275.736 210.191 274.967 209.924 274.395 209.391C273.822 208.857 273.535 208.18 273.535 207.359ZM295.586 229.234V219.82C295.586 219.143 295.475 218.564 295.254 218.082C295.033 217.587 294.688 217.203 294.219 216.93C293.763 216.656 293.171 216.52 292.441 216.52C291.816 216.52 291.276 216.63 290.82 216.852C290.365 217.06 290.013 217.366 289.766 217.77C289.518 218.16 289.395 218.622 289.395 219.156H283.77C283.77 218.258 283.978 217.405 284.395 216.598C284.811 215.79 285.417 215.081 286.211 214.469C287.005 213.844 287.949 213.355 289.043 213.004C290.15 212.652 291.387 212.477 292.754 212.477C294.395 212.477 295.853 212.75 297.129 213.297C298.405 213.844 299.408 214.664 300.137 215.758C300.879 216.852 301.25 218.219 301.25 219.859V228.902C301.25 230.061 301.322 231.012 301.465 231.754C301.608 232.483 301.816 233.121 302.09 233.668V234H296.406C296.133 233.427 295.924 232.711 295.781 231.852C295.651 230.979 295.586 230.107 295.586 229.234ZM296.328 221.129L296.367 224.312H293.223C292.48 224.312 291.836 224.397 291.289 224.566C290.742 224.736 290.293 224.977 289.941 225.289C289.59 225.589 289.329 225.94 289.16 226.344C289.004 226.747 288.926 227.19 288.926 227.672C288.926 228.154 289.036 228.59 289.258 228.98C289.479 229.358 289.798 229.658 290.215 229.879C290.632 230.087 291.12 230.191 291.68 230.191C292.526 230.191 293.262 230.022 293.887 229.684C294.512 229.345 294.993 228.928 295.332 228.434C295.684 227.939 295.866 227.47 295.879 227.027L297.363 229.41C297.155 229.944 296.868 230.497 296.504 231.07C296.152 231.643 295.703 232.184 295.156 232.691C294.609 233.186 293.952 233.596 293.184 233.922C292.415 234.234 291.504 234.391 290.449 234.391C289.108 234.391 287.891 234.124 286.797 233.59C285.716 233.043 284.857 232.294 284.219 231.344C283.594 230.38 283.281 229.286 283.281 228.062C283.281 226.956 283.49 225.973 283.906 225.113C284.323 224.254 284.935 223.531 285.742 222.945C286.562 222.346 287.585 221.897 288.809 221.598C290.033 221.285 291.452 221.129 293.066 221.129H296.328ZM315.938 212.867V216.852H303.633V212.867H315.938ZM306.68 207.652H312.305V227.633C312.305 228.245 312.383 228.714 312.539 229.039C312.708 229.365 312.956 229.592 313.281 229.723C313.607 229.84 314.017 229.898 314.512 229.898C314.863 229.898 315.176 229.885 315.449 229.859C315.736 229.82 315.977 229.781 316.172 229.742L316.191 233.883C315.71 234.039 315.189 234.163 314.629 234.254C314.069 234.345 313.451 234.391 312.773 234.391C311.536 234.391 310.456 234.189 309.531 233.785C308.62 233.368 307.917 232.704 307.422 231.793C306.927 230.882 306.68 229.684 306.68 228.199V207.652ZM325.078 212.867V234H319.434V212.867H325.078ZM319.082 207.359C319.082 206.539 319.368 205.862 319.941 205.328C320.514 204.794 321.283 204.527 322.246 204.527C323.197 204.527 323.958 204.794 324.531 205.328C325.117 205.862 325.41 206.539 325.41 207.359C325.41 208.18 325.117 208.857 324.531 209.391C323.958 209.924 323.197 210.191 322.246 210.191C321.283 210.191 320.514 209.924 319.941 209.391C319.368 208.857 319.082 208.18 319.082 207.359ZM328.828 223.648V223.238C328.828 221.689 329.049 220.263 329.492 218.961C329.935 217.646 330.579 216.507 331.426 215.543C332.272 214.579 333.314 213.831 334.551 213.297C335.788 212.75 337.207 212.477 338.809 212.477C340.41 212.477 341.836 212.75 343.086 213.297C344.336 213.831 345.384 214.579 346.23 215.543C347.09 216.507 347.741 217.646 348.184 218.961C348.626 220.263 348.848 221.689 348.848 223.238V223.648C348.848 225.185 348.626 226.611 348.184 227.926C347.741 229.228 347.09 230.367 346.23 231.344C345.384 232.307 344.342 233.056 343.105 233.59C341.868 234.124 340.449 234.391 338.848 234.391C337.246 234.391 335.82 234.124 334.57 233.59C333.333 233.056 332.285 232.307 331.426 231.344C330.579 230.367 329.935 229.228 329.492 227.926C329.049 226.611 328.828 225.185 328.828 223.648ZM334.453 223.238V223.648C334.453 224.534 334.531 225.361 334.688 226.129C334.844 226.897 335.091 227.574 335.43 228.16C335.781 228.733 336.237 229.182 336.797 229.508C337.357 229.833 338.04 229.996 338.848 229.996C339.629 229.996 340.299 229.833 340.859 229.508C341.419 229.182 341.868 228.733 342.207 228.16C342.546 227.574 342.793 226.897 342.949 226.129C343.118 225.361 343.203 224.534 343.203 223.648V223.238C343.203 222.379 343.118 221.572 342.949 220.816C342.793 220.048 342.539 219.371 342.188 218.785C341.849 218.186 341.4 217.717 340.84 217.379C340.28 217.04 339.603 216.871 338.809 216.871C338.014 216.871 337.337 217.04 336.777 217.379C336.23 217.717 335.781 218.186 335.43 218.785C335.091 219.371 334.844 220.048 334.688 220.816C334.531 221.572 334.453 222.379 334.453 223.238ZM357.812 217.379V234H352.188V212.867H357.461L357.812 217.379ZM356.992 222.691H355.469C355.469 221.129 355.671 219.723 356.074 218.473C356.478 217.21 357.044 216.135 357.773 215.25C358.503 214.352 359.368 213.668 360.371 213.199C361.387 212.717 362.52 212.477 363.77 212.477C364.759 212.477 365.664 212.62 366.484 212.906C367.305 213.193 368.008 213.648 368.594 214.273C369.193 214.898 369.648 215.725 369.961 216.754C370.286 217.783 370.449 219.039 370.449 220.523V234H364.785V220.504C364.785 219.566 364.655 218.837 364.395 218.316C364.134 217.796 363.75 217.431 363.242 217.223C362.747 217.001 362.135 216.891 361.406 216.891C360.651 216.891 359.993 217.04 359.434 217.34C358.887 217.639 358.431 218.056 358.066 218.59C357.715 219.111 357.448 219.723 357.266 220.426C357.083 221.129 356.992 221.884 356.992 222.691Z" fill="#1E1E1E"/>
<defs>
<filter id="filter0_f_210_90" x="0.399902" y="0" width="939.141" height="352.6" filterUnits="userSpaceOnUse" color-interpolation-filters="sRGB">
<feFlood flood-opacity="0" result="BackgroundImageFix"/>
<feBlend mode="normal" in="SourceGraphic" in2="BackgroundImageFix" result="shape"/>
<feGaussianBlur stdDeviation="50" result="effect1_foregroundBlur_210_90"/>
</filter>
</defs>
</svg>
